<svg width="24" height="24" viewBox="0 0 24 24" fill="none" xmlns="http://www.w3.org/2000/svg">
<path d="M20.31 4.67C19.2838 3.77244 17.9507 3.30572 16.5887 3.36721C15.2268 3.42869 13.9412 4.01362 13 5L12 6L11 5C10.0566 4.02944 8.77711 3.4574 7.42477 3.40159C6.07243 3.34579 4.75013 3.81046 3.73 4.7C2.87183 5.48855 2.30588 6.54439 2.1243 7.6956C1.94272 8.84681 2.15621 10.0256 2.73 11.04C2.96243 11.4554 3.24818 11.8387 3.58 12.18L12 20.64L20.49 12.15C20.8225 11.8056 21.1083 11.4189 21.34 11C21.9077 9.98343 22.1148 8.80476 21.9278 7.65555C21.7408 6.50634 21.1707 5.45415 20.31 4.67Z" stroke="black" stroke-width="1.15" stroke-linecap="round" stroke-linejoin="round"/>
</svg>
