<svg width="24" height="24" viewBox="0 0 24 24" fill="none" xmlns="http://www.w3.org/2000/svg">
<path d="M22 12C22 12 17.52 6 12 6C6.48 6 2 12 2 12" stroke="black" stroke-width="1.15" stroke-linecap="round" stroke-linejoin="round"/>
<path d="M12 15.67C14.0269 15.67 15.67 14.0269 15.67 12C15.67 9.97312 14.0269 8.33 12 8.33C9.9731 8.33 8.32999 9.97312 8.32999 12C8.32999 14.0269 9.9731 15.67 12 15.67Z" stroke="black" stroke-width="1.15" stroke-linecap="round" stroke-linejoin="round"/>
<path d="M22 12C22 12 17.52 18 12 18C6.48 18 2 12 2 12C2 12 6.48 6 12 6C17.52 6 22 12 22 12Z" stroke="black" stroke-width="1.15" stroke-linecap="round" stroke-linejoin="round"/>
</svg>
