<svg width="24" height="24" viewBox="0 0 24 24" fill="none" xmlns="http://www.w3.org/2000/svg">
<path d="M8.05942 4.13982C8.02024 5.03647 8.31515 5.6624 9.00888 6.69201M8.05942 4.13982C9.92396 1.88027 14.076 1.88027 15.9405 4.13982M8.05942 4.13982C5.19938 7.35409 7.98651 10.6306 10.0277 13.2092M9.00888 6.69201C9.95909 8.10227 10.9472 9.4948 12 10.8304M9.00888 6.69201C11.0957 5.23492 12.9042 5.23492 14.9911 6.69201M15.9405 4.13982C15.9797 5.03647 15.6848 5.6624 14.9911 6.69201M15.9405 4.13982C18.8006 7.35409 16.0135 10.6306 13.9722 13.2092M14.9911 6.69201C14.0409 8.10227 13.0527 9.4948 12 10.8304M12 10.8304C11.356 11.6475 10.6985 12.4337 10.0277 13.2092M10.0277 13.2092C9.11758 14.2612 6.58754 17.1147 6.20781 17.5428C6.17832 17.5761 6.17554 17.6219 6.19921 17.6595C6.42651 18.0208 7.57599 19.847 7.99998 20.5C8.02881 20.5462 9.97506 18.1891 12 15.6766M12 15.6766C14.0249 18.1891 15.9711 20.5462 16 20.5C16.3459 19.9672 17.565 18.0337 17.8005 17.6598C17.8242 17.6222 17.8217 17.5762 17.7922 17.5429C17.3996 17.0996 14.7098 14.0618 13.9722 13.2092M12 15.6766C12.6711 14.8439 13.3508 13.9942 13.9722 13.2092" stroke="#22202A" stroke-miterlimit="10"/>
</svg>
