<svg width="24" height="24" viewBox="0 0 24 24" fill="none" xmlns="http://www.w3.org/2000/svg">
<path d="M4.40939 17.5L6.49962 15.4098C6.89014 15.0193 6.85332 14.3763 6.73225 13.8374C6.59154 13.2112 6.77954 12.5095 7.28813 12.0009C8.0567 11.2323 9.26635 11.1958 9.98995 11.9194C10.2666 12.1961 10.4321 12.5438 10.4882 12.9107C10.5083 13.0423 10.614 13.1481 10.7457 13.1682C11.1126 13.2242 11.4603 13.3897 11.7369 13.6664C12.4605 14.39 12.424 15.5996 11.6555 16.3682C11.1469 16.8768 10.4451 17.0648 9.81889 16.9241C9.28004 16.803 8.63708 16.7662 8.24656 17.1567L6.10516 19.2981" stroke="#22202A" stroke-linecap="round"/>
<path d="M17.5 4.4094L15.4038 6.50562C15.0133 6.89614 14.3702 6.85932 13.8313 6.73858C13.2046 6.59818 12.5021 6.78685 11.9927 7.29627C11.223 8.06602 11.1856 9.27663 11.9092 10.0002C12.1858 10.2768 12.5335 10.4422 12.9006 10.498C13.0324 10.5181 13.1383 10.624 13.1583 10.7558C13.2141 11.1228 13.3795 11.4706 13.6561 11.7472C14.3797 12.4708 15.5903 12.4334 16.3601 11.6636C16.8695 11.1542 17.0582 10.4517 16.9178 9.82504C16.797 9.28611 16.7602 8.64308 17.1507 8.25255L19.2902 6.11308" stroke="#22202A" stroke-linecap="round"/>
<path d="M8.5 8.5L8 8" stroke="#22202A" stroke-linecap="round"/>
<path d="M10 8L10 7.5" stroke="#22202A" stroke-linecap="round"/>
<path d="M8 10L7.5 10" stroke="#22202A" stroke-linecap="round"/>
<path d="M15.5 15.5L16 16" stroke="#22202A" stroke-linecap="round"/>
<path d="M14 16L14 16.5" stroke="#22202A" stroke-linecap="round"/>
<path d="M16 14L16.5 14" stroke="#22202A" stroke-linecap="round"/>
</svg>
