<svg width="22" height="22" viewBox="0 0 22 22" fill="none" xmlns="http://www.w3.org/2000/svg">
<path d="M11 20.1667C16.0626 20.1667 20.1667 16.0627 20.1667 11C20.1667 5.93743 16.0626 1.83337 11 1.83337C5.9374 1.83337 1.83334 5.93743 1.83334 11C1.83334 16.0627 5.9374 20.1667 11 20.1667Z" stroke="#7C7C7C"/>
<path d="M11 5.5V16.5M13.75 8.70833C13.75 7.44333 12.5189 6.41667 11 6.41667C9.48108 6.41667 8.25 7.44333 8.25 8.70833C8.25 9.97333 9.48108 11 11 11C12.5189 11 13.75 12.0267 13.75 13.2917C13.75 14.5567 12.5189 15.5833 11 15.5833C9.48108 15.5833 8.25 14.5567 8.25 13.2917" stroke="#7C7C7C" stroke-linecap="round"/>
</svg>
