<svg width="22" height="22" viewBox="0 0 22 22" fill="none" xmlns="http://www.w3.org/2000/svg">
<path d="M13.75 2.29175V3.66675C13.75 4.96291 13.75 5.611 14.1533 6.01341C14.5548 6.41675 15.2029 6.41675 16.5 6.41675H17.875" stroke="#7C7C7C" stroke-linecap="round" stroke-linejoin="round"/>
<path d="M7.33332 10.0834H14.6667M7.33332 12.8334H14.6667M7.33332 15.5834H11.1558M3.66666 14.6667V7.33337C3.66666 4.74104 3.66666 3.44396 4.47241 2.63912C5.27724 1.83337 6.57432 1.83337 9.16666 1.83337H12.991C13.365 1.83337 13.5529 1.83337 13.7216 1.90304C13.8893 1.97271 14.0222 2.10471 14.2872 2.37054L17.7962 5.87954C18.062 6.14537 18.194 6.27737 18.2637 6.44604C18.3333 6.61379 18.3333 6.80171 18.3333 7.17571V14.6667C18.3333 17.259 18.3333 18.5561 17.5276 19.361C16.7227 20.1667 15.4257 20.1667 12.8333 20.1667H9.16666C6.57432 20.1667 5.27724 20.1667 4.47241 19.361C3.66666 18.5561 3.66666 17.259 3.66666 14.6667Z" stroke="#7C7C7C" stroke-linecap="round" stroke-linejoin="round"/>
</svg>
