<svg width="22" height="22" viewBox="0 0 22 22" fill="none" xmlns="http://www.w3.org/2000/svg">
<path d="M8.06665 10.2667C7.09419 10.2667 6.16156 9.88037 5.47393 9.19273C4.78629 8.5051 4.39999 7.57247 4.39999 6.60001V3.66667C4.39999 3.47218 4.47725 3.28566 4.61477 3.14813C4.7523 3.0106 4.93883 2.93334 5.13332 2.93334H5.86665C6.06114 2.93334 6.24767 2.85608 6.3852 2.71855C6.52272 2.58103 6.59999 2.3945 6.59999 2.20001C6.59999 2.00552 6.52272 1.81899 6.3852 1.68146C6.24767 1.54394 6.06114 1.46667 5.86665 1.46667H5.13332C4.54984 1.46667 3.99026 1.69846 3.57768 2.11104C3.1651 2.52362 2.93332 3.0832 2.93332 3.66667V6.60001C2.93426 7.42848 3.13629 8.24435 3.52204 8.97753C3.90779 9.71072 4.46575 10.3393 5.14799 10.8093C5.80412 11.3867 6.33615 12.0913 6.7118 12.8804C7.08745 13.6695 7.2989 14.5267 7.33332 15.4C7.33332 16.7615 7.87415 18.0671 8.83684 19.0298C9.79952 19.9925 11.1052 20.5333 12.4667 20.5333C13.8281 20.5333 15.1338 19.9925 16.0965 19.0298C17.0592 18.0671 17.6 16.7615 17.6 15.4V14.564C18.2913 14.3855 18.8937 13.961 19.2944 13.3701C19.6951 12.7792 19.8666 12.0625 19.7766 11.3542C19.6866 10.6459 19.3415 9.9948 18.8058 9.52284C18.2701 9.05087 17.5806 8.79049 16.8667 8.79049C16.1527 8.79049 15.4633 9.05087 14.9275 9.52284C14.3918 9.9948 14.0467 10.6459 13.9567 11.3542C13.8667 12.0625 14.0382 12.7792 14.4389 13.3701C14.8396 13.961 15.442 14.3855 16.1333 14.564V15.4C16.1333 16.3725 15.747 17.3051 15.0594 17.9927C14.3717 18.6804 13.4391 19.0667 12.4667 19.0667C11.4942 19.0667 10.5616 18.6804 9.87393 17.9927C9.18629 17.3051 8.79999 16.3725 8.79999 15.4C8.83626 14.5256 9.05 13.6678 9.4282 12.8786C9.80641 12.0894 10.3412 11.3854 11 10.8093C11.6795 10.3377 12.2346 9.70838 12.6178 8.97529C13.0009 8.2422 13.2007 7.42718 13.2 6.60001V3.66667C13.2 3.0832 12.9682 2.52362 12.5556 2.11104C12.143 1.69846 11.5835 1.46667 11 1.46667H10.2667C10.0722 1.46667 9.88563 1.54394 9.74811 1.68146C9.61058 1.81899 9.53332 2.00552 9.53332 2.20001C9.53332 2.3945 9.61058 2.58103 9.74811 2.71855C9.88563 2.85608 10.0722 2.93334 10.2667 2.93334H11C11.1945 2.93334 11.381 3.0106 11.5185 3.14813C11.6561 3.28566 11.7333 3.47218 11.7333 3.66667V6.60001C11.7333 7.08152 11.6385 7.55832 11.4542 8.00318C11.2699 8.44804 10.9999 8.85225 10.6594 9.19273C10.3189 9.53321 9.91469 9.8033 9.46982 9.98757C9.02496 10.1718 8.54817 10.2667 8.06665 10.2667ZM16.8667 13.2C16.4777 13.2 16.1046 13.0455 15.8296 12.7704C15.5545 12.4954 15.4 12.1223 15.4 11.7333C15.4 11.3444 15.5545 10.9713 15.8296 10.6963C16.1046 10.4212 16.4777 10.2667 16.8667 10.2667C17.2556 10.2667 17.6287 10.4212 17.9037 10.6963C18.1788 10.9713 18.3333 11.3444 18.3333 11.7333C18.3333 12.1223 18.1788 12.4954 17.9037 12.7704C17.6287 13.0455 17.2556 13.2 16.8667 13.2Z" fill="#7C7C7C"/>
</svg>
