<svg width="22" height="22" viewBox="0 0 22 22" fill="none" xmlns="http://www.w3.org/2000/svg">
<path d="M11.4583 15.5834H10.5417C10.2667 15.5834 10.0833 15.7667 10.0833 16.0417C10.0833 16.3167 10.2667 16.5 10.5417 16.5H11.4583C11.7333 16.5 11.9167 16.3167 11.9167 16.0417C11.9167 15.7667 11.7333 15.5834 11.4583 15.5834ZM6.87501 11.9167H5.95834C5.68334 11.9167 5.50001 12.1 5.50001 12.375C5.50001 12.65 5.68334 12.8334 5.95834 12.8334H6.87501C7.15001 12.8334 7.33334 12.65 7.33334 12.375C7.33334 12.1 7.15001 11.9167 6.87501 11.9167ZM11.4583 11.9167H10.5417C10.2667 11.9167 10.0833 12.1 10.0833 12.375C10.0833 12.65 10.2667 12.8334 10.5417 12.8334H11.4583C11.7333 12.8334 11.9167 12.65 11.9167 12.375C11.9167 12.1 11.7333 11.9167 11.4583 11.9167ZM6.87501 15.5834H5.95834C5.68334 15.5834 5.50001 15.7667 5.50001 16.0417C5.50001 16.3167 5.68334 16.5 5.95834 16.5H6.87501C7.15001 16.5 7.33334 16.3167 7.33334 16.0417C7.33334 15.7667 7.15001 15.5834 6.87501 15.5834ZM12.375 6.87504H11.4583V5.95837C11.4583 5.68337 11.275 5.50004 11 5.50004C10.725 5.50004 10.5417 5.68337 10.5417 5.95837V6.87504H9.62501C9.35001 6.87504 9.16668 7.05837 9.16668 7.33337C9.16668 7.60837 9.35001 7.79171 9.62501 7.79171H10.5417V8.70837C10.5417 8.98337 10.725 9.16671 11 9.16671C11.275 9.16671 11.4583 8.98337 11.4583 8.70837V7.79171H12.375C12.65 7.79171 12.8333 7.60837 12.8333 7.33337C12.8333 7.05837 12.65 6.87504 12.375 6.87504ZM19.7083 6.41671H16.5V2.29171C16.5 2.01671 16.3167 1.83337 16.0417 1.83337H5.95834C5.68334 1.83337 5.50001 2.01671 5.50001 2.29171V6.41671H2.29168C2.01668 6.41671 1.83334 6.60004 1.83334 6.87504V19.7084C1.83334 19.9834 2.01668 20.1667 2.29168 20.1667H19.7083C19.9833 20.1667 20.1667 19.9834 20.1667 19.7084V6.87504C20.1667 6.60004 19.9833 6.41671 19.7083 6.41671ZM19.25 19.25H2.75001V7.33337H5.95834C6.23334 7.33337 6.41668 7.15004 6.41668 6.87504V2.75004H15.5833V6.87504C15.5833 7.15004 15.7667 7.33337 16.0417 7.33337H19.25V19.25ZM16.0417 15.5834H15.125C14.85 15.5834 14.6667 15.7667 14.6667 16.0417C14.6667 16.3167 14.85 16.5 15.125 16.5H16.0417C16.3167 16.5 16.5 16.3167 16.5 16.0417C16.5 15.7667 16.3167 15.5834 16.0417 15.5834ZM15.125 11.9167C14.85 11.9167 14.6667 12.1 14.6667 12.375C14.6667 12.65 14.85 12.8334 15.125 12.8334H16.0417C16.3167 12.8334 16.5 12.65 16.5 12.375C16.5 12.1 16.3167 11.9167 16.0417 11.9167H15.125Z" fill="#7C7C7C"/>
</svg>
